<svg xmlns="http://www.w3.org/2000/svg" xmlns:xlink="http://www.w3.org/1999/xlink" width="500" zoomAndPan="magnify" viewBox="0 0 375 374.999991" height="500" preserveAspectRatio="xMidYMid meet" version="1.0"><defs><clipPath id="ab72df0004"><path d="M 49 52.710938 L 327 52.710938 L 327 146 L 49 146 Z M 49 52.710938 " clip-rule="nonzero"/></clipPath><clipPath id="76471edabf"><path d="M 48.179688 292 L 326 292 L 326 311.460938 L 48.179688 311.460938 Z M 48.179688 292 " clip-rule="nonzero"/></clipPath><clipPath id="10122df6bc"><path d="M 141.796875 170.15625 L 233.296875 170.15625 L 233.296875 261.65625 L 141.796875 261.65625 Z M 141.796875 170.15625 " clip-rule="nonzero"/></clipPath></defs><g clip-path="url(#ab72df0004)"><path fill="#ffd700" d="M 53.1875 121.152344 C 129.703125 121.292969 206.25 121.113281 282.773438 121.261719 C 285.21875 121.261719 287.660156 121.328125 290.109375 121.382812 C 290.945312 121.402344 291.066406 121.628906 290.648438 122.300781 C 288.667969 124.976562 286.175781 128.21875 282.527344 128.191406 C 208.046875 128.03125 133.523438 128.441406 59.066406 127.988281 C 58.753906 128.441406 59.753906 128.679688 59.972656 128.960938 C 62.652344 130.589844 65.492188 132.890625 65.300781 136.332031 C 65.285156 138.308594 65.351562 140.292969 65.394531 142.269531 C 65.546875 143.105469 65.058594 144.875 66.160156 145.023438 C 106.691406 145.261719 147.234375 144.851562 187.769531 144.996094 C 187.769531 144.984375 187.769531 144.964844 187.769531 144.949219 C 228.125 144.101562 270.542969 146.582031 309.914062 144.136719 C 311.554688 130.792969 311.992188 130.949219 322.445312 122.90625 C 323.363281 122.195312 328.308594 117.65625 326.359375 117.023438 C 281.972656 97.1875 238.386719 75.449219 194.242188 55.011719 C 192.367188 54.433594 189.453125 51.96875 187.644531 53 C 178.355469 57.578125 168.886719 61.792969 159.539062 66.246094 C 122.988281 83.414062 86.441406 100.589844 49.695312 117.347656 C 49.359375 117.425781 49.027344 117.671875 49.070312 117.992188 C 50.046875 119.5625 51.183594 120.996094 53.1875 121.152344 Z M 84.203125 114.871094 C 84.210938 114.839844 84.296875 114.820312 84.355469 114.800781 C 94.648438 110.480469 104.652344 105.476562 114.878906 100.988281 C 138.371094 90.390625 161.886719 79.828125 185.371094 69.207031 C 187.132812 68.597656 188.234375 67.023438 190.132812 68.214844 C 222.835938 83.308594 255.777344 97.894531 288.289062 113.410156 C 289.886719 114.285156 293.398438 114.898438 291.703125 115.816406 C 288.046875 116.382812 280.480469 111.390625 276.53125 110.023438 C 247.546875 97.132812 218.90625 83.472656 189.835938 70.792969 C 189.035156 70.433594 188.355469 70.410156 187.523438 70.792969 C 183.617188 72.601562 179.679688 74.339844 175.757812 76.109375 C 155.875 85.105469 135.957031 94.015625 116.007812 102.84375 C 106.597656 107.027344 97.164062 111.152344 87.777344 115.390625 C 86.664062 115.898438 85.558594 116.074219 84.417969 115.492188 C 84.117188 115.398438 84.105469 115.132812 84.203125 114.871094 Z M 84.203125 114.871094 " fill-opacity="1" fill-rule="nonzero"/></g><g clip-path="url(#76471edabf)"><path fill="#ffd700" d="M 324.972656 303.257812 C 324.957031 302.371094 324.898438 302.296875 323.996094 302.121094 C 272.152344 294.804688 219.804688 290.96875 167.433594 292.703125 C 129.476562 293.667969 91.707031 298.367188 54.238281 304.335938 C 52.570312 304.601562 50.902344 304.875 49.25 305.199219 C 48.21875 305.402344 48.1875 305.464844 48.183594 306.445312 C 48.167969 307.78125 48.1875 309.125 48.21875 310.460938 C 48.238281 311.230469 48.34375 311.328125 49.179688 311.332031 C 94.964844 311.304688 140.75 311.328125 186.535156 311.324219 C 186.535156 311.316406 186.535156 311.3125 186.535156 311.300781 C 232.496094 311.277344 278.453125 311.355469 324.414062 311.246094 C 325.09375 311.265625 325.082031 310.574219 325.054688 310.066406 C 325.027344 307.800781 325.007812 305.527344 324.972656 303.257812 Z M 324.972656 303.257812 " fill-opacity="1" fill-rule="nonzero"/></g><path fill="#ffd700" d="M 58.914062 300.460938 C 87.296875 295.328125 115.804688 290.378906 144.613281 288.4375 C 190.023438 285.203125 235.738281 286.734375 280.980469 291.523438 C 293.578125 292.980469 306.164062 294.601562 318.707031 296.492188 C 319.132812 296.546875 319.796875 296.675781 319.808594 296.070312 C 319.832031 295.664062 319.820312 295.257812 319.8125 294.847656 C 319.683594 289.085938 319.550781 283.320312 319.40625 277.558594 C 319.355469 275.453125 319.617188 275.609375 317.382812 275.597656 C 274.523438 275.507812 231.664062 275.335938 188.804688 275.402344 C 188.804688 275.410156 188.804688 275.414062 188.804688 275.417969 C 145.488281 275.425781 102.148438 275.367188 58.839844 275.660156 C 58.316406 275.832031 58.339844 276.5 58.359375 276.964844 C 58.273438 284.535156 58.191406 292.101562 58.105469 299.671875 C 58.101562 300.355469 58.265625 300.523438 58.914062 300.460938 Z M 58.914062 300.460938 " fill-opacity="1" fill-rule="nonzero"/><path fill="#ffd700" d="M 135.929688 256.972656 C 137.085938 256.972656 137.152344 256.925781 137.171875 255.84375 C 137.171875 249.554688 136.734375 243.277344 136.546875 236.992188 C 135.75 220.65625 135.1875 204.308594 134.429688 187.96875 C 134.34375 183.546875 134.007812 179.128906 133.8125 174.710938 C 133.78125 174.152344 133.632812 174.023438 133.054688 173.988281 C 124.90625 173.960938 116.75 173.957031 108.601562 173.988281 C 107.941406 173.980469 107.972656 174.699219 107.941406 175.1875 C 107.675781 179.835938 107.40625 184.484375 107.160156 189.132812 C 106.828125 197.628906 106.289062 206.113281 105.828125 214.597656 C 105.027344 228.492188 104.40625 242.390625 103.78125 256.285156 C 103.769531 256.863281 103.914062 257 104.484375 257.03125 C 109.785156 257.046875 115.082031 257.03125 120.382812 257.035156 C 120.382812 257.003906 120.382812 256.972656 120.382812 256.9375 C 125.566406 256.945312 130.746094 256.921875 135.929688 256.972656 Z M 135.929688 256.972656 " fill-opacity="1" fill-rule="nonzero"/><path fill="#ffd700" d="M 239.703125 256.992188 C 249.714844 256.847656 259.734375 256.960938 269.75 256.996094 C 271.28125 257 271.296875 256.996094 271.25 255.46875 C 271.070312 244.402344 270.265625 233.371094 269.964844 222.308594 C 269.5 206.714844 268.542969 191.140625 268.003906 175.546875 C 267.945312 173.953125 267.921875 173.976562 266.449219 173.980469 C 258.585938 173.976562 250.722656 173.960938 242.867188 173.980469 C 242.445312 173.984375 242.230469 174.203125 242.207031 174.621094 C 241.296875 189.789062 240.925781 204.984375 240.371094 220.167969 C 240.359375 220.167969 240.339844 220.167969 240.324219 220.167969 C 239.796875 231.386719 239.484375 242.632812 239.242188 253.859375 C 239.421875 254.679688 238.550781 256.863281 239.703125 256.992188 Z M 239.703125 256.992188 " fill-opacity="1" fill-rule="nonzero"/><path fill="#ffd700" d="M 173.480469 238.199219 C 173.285156 243.847656 173.113281 249.492188 172.917969 255.136719 C 172.855469 257.070312 172.660156 257.023438 174.765625 257.007812 C 183.851562 256.976562 192.9375 256.847656 202.023438 256.933594 C 202.863281 256.9375 202.964844 256.871094 202.960938 256.070312 C 202.890625 249.492188 202.460938 242.917969 202.148438 236.347656 C 201.113281 216.296875 200.207031 196.222656 199.179688 176.167969 C 199.058594 173.691406 199 173.992188 196.878906 173.984375 C 189.949219 173.960938 183.015625 173.925781 176.085938 173.957031 C 175.761719 173.96875 175.527344 174.113281 175.503906 174.46875 C 175.289062 180.226562 175.15625 185.988281 174.972656 191.753906 C 174.710938 199.664062 174.285156 207.578125 174.390625 215.5 C 174.359375 215.5 174.320312 215.5 174.289062 215.5 C 174.015625 223.070312 173.75 230.636719 173.480469 238.199219 Z M 173.480469 238.199219 " fill-opacity="1" fill-rule="nonzero"/><path fill="#ffd700" d="M 93.585938 215.867188 C 93.292969 202.136719 92.679688 188.414062 92.402344 174.6875 C 92.351562 174.023438 92.246094 173.9375 91.519531 173.90625 C 86.34375 173.90625 81.160156 173.910156 75.980469 173.914062 C 75.167969 173.914062 74.351562 173.914062 73.539062 173.941406 C 72.796875 173.964844 72.722656 174.03125 72.683594 174.730469 C 71.277344 201.699219 70.351562 228.6875 69.511719 255.671875 C 69.4375 257.867188 69.167969 257.71875 71.515625 257.714844 C 78.90625 257.699219 86.296875 257.679688 93.6875 257.660156 C 94.488281 257.714844 94.878906 257.347656 94.769531 256.527344 C 94.664062 242.960938 93.832031 229.425781 93.679688 215.863281 C 93.648438 215.863281 93.617188 215.867188 93.585938 215.867188 Z M 93.585938 215.867188 " fill-opacity="1" fill-rule="nonzero"/><path fill="#ffd700" d="M 61.320312 263.214844 C 61.222656 265.132812 61.195312 267.054688 61.148438 268.972656 C 61.140625 269.300781 61.335938 269.519531 61.679688 269.535156 C 104.015625 269.660156 146.359375 269.539062 188.699219 269.582031 C 188.699219 269.582031 188.699219 269.574219 188.699219 269.574219 C 231.097656 269.511719 273.496094 269.695312 315.898438 269.519531 C 316.457031 269.496094 316.640625 269.28125 316.574219 268.746094 C 316.332031 266.960938 316.148438 265.160156 315.835938 263.386719 C 232.742188 260.273438 146.46875 263.5 62.328125 262.386719 C 61.496094 262.386719 61.359375 262.445312 61.320312 263.214844 Z M 61.320312 263.214844 " fill-opacity="1" fill-rule="nonzero"/><path fill="#ffd700" d="M 303.984375 175.5625 C 303.933594 173.886719 303.921875 173.882812 302.167969 173.882812 C 296.289062 173.902344 290.40625 173.863281 284.527344 173.917969 C 283.929688 173.953125 283.800781 174.046875 283.769531 174.625 C 283.09375 188.289062 283.378906 201.988281 283.117188 215.664062 C 283.097656 215.664062 283.082031 215.664062 283.0625 215.664062 C 282.53125 229.042969 282.558594 242.441406 282.300781 255.828125 C 282.238281 256.285156 282.285156 256.78125 282.761719 256.972656 C 290.308594 257.109375 297.902344 256.972656 305.460938 257.007812 C 306.40625 257.007812 306.507812 256.925781 306.492188 256.039062 C 306.257812 239.738281 305.386719 223.457031 305.003906 207.160156 C 304.601562 196.632812 304.257812 186.101562 303.984375 175.5625 Z M 303.984375 175.5625 " fill-opacity="1" fill-rule="nonzero"/><path fill="#ffd700" d="M 308.191406 151.386719 C 289.097656 151.433594 270.003906 151.480469 250.910156 151.523438 C 245.726562 151.53125 240.550781 151.527344 235.367188 151.546875 C 233.753906 151.550781 233.824219 151.523438 233.828125 153.078125 C 233.839844 158.027344 233.875 162.972656 233.867188 167.925781 C 233.863281 169.488281 233.886719 169.425781 235.398438 169.417969 C 259.789062 169.390625 284.183594 169.425781 308.574219 169.515625 C 309.144531 169.507812 309.1875 168.917969 309.160156 168.464844 C 309.167969 163.109375 309.183594 157.75 309.183594 152.394531 C 309.183594 151.472656 309.089844 151.386719 308.191406 151.386719 Z M 308.191406 151.386719 " fill-opacity="1" fill-rule="nonzero"/><path fill="#ffd700" d="M 142.230469 151.503906 C 123.492188 151.285156 104.746094 151.53125 86.007812 151.515625 C 80.421875 151.53125 74.828125 151.515625 69.242188 151.554688 C 67.265625 151.566406 67.394531 151.34375 67.394531 153.492188 C 67.394531 158.148438 67.425781 162.800781 67.449219 167.460938 C 67.460938 169.632812 67.246094 169.417969 69.414062 169.417969 C 81.289062 169.417969 93.164062 169.417969 105.039062 169.417969 C 105.039062 169.433594 105.039062 169.449219 105.039062 169.460938 C 117.378906 169.515625 129.722656 169.351562 142.054688 169.535156 C 142.964844 169.488281 142.597656 168.230469 142.710938 167.621094 C 142.742188 162.675781 142.765625 157.726562 142.789062 152.78125 C 142.769531 152.3125 142.871094 151.546875 142.230469 151.503906 Z M 142.230469 151.503906 " fill-opacity="1" fill-rule="nonzero"/><path fill="#ffd700" d="M 218.160156 169.457031 C 219.039062 169.257812 221.773438 170.117188 221.871094 169.054688 C 221.9375 163.523438 221.894531 157.992188 221.890625 152.460938 C 221.847656 151.636719 221.773438 151.535156 221.007812 151.5 C 199.523438 151.433594 178.035156 151.558594 156.550781 151.484375 C 155.796875 151.574219 154.351562 151.121094 154.488281 152.277344 C 154.515625 157.632812 154.519531 162.992188 154.539062 168.347656 C 154.519531 168.792969 154.503906 169.414062 155.101562 169.414062 C 166.164062 169.492188 177.222656 169.417969 188.285156 169.441406 C 188.285156 169.441406 188.285156 169.449219 188.285156 169.449219 C 198.246094 169.453125 208.203125 169.449219 218.160156 169.457031 Z M 218.160156 169.457031 " fill-opacity="1" fill-rule="nonzero"/><g clip-path="url(#10122df6bc)"><path fill="#ffffff" d="M 233.203125 215.859375 C 233.203125 241.101562 212.742188 261.5625 187.5 261.5625 C 162.257812 261.5625 141.796875 241.101562 141.796875 215.859375 C 141.796875 190.617188 162.257812 170.15625 187.5 170.15625 C 212.742188 170.15625 233.203125 190.617188 233.203125 215.859375 " fill-opacity="1" fill-rule="nonzero"/></g><path fill="#ffffff" d="M 232.40625 216.210938 C 232.40625 240.816406 212.457031 260.765625 187.851562 260.765625 C 163.242188 260.765625 143.292969 240.816406 143.292969 216.210938 C 143.292969 191.601562 163.242188 171.652344 187.851562 171.652344 C 212.460938 171.652344 232.40625 191.601562 232.40625 216.210938 " fill-opacity="1" fill-rule="nonzero"/><path fill="#ffd700" d="M 221.871094 215.535156 C 221.871094 234.734375 206.304688 250.296875 187.109375 250.296875 C 167.914062 250.296875 152.351562 234.734375 152.351562 215.535156 C 152.351562 196.339844 167.914062 180.777344 187.109375 180.777344 C 206.304688 180.777344 221.871094 196.339844 221.871094 215.535156 " fill-opacity="1" fill-rule="nonzero"/><path fill="#ffd700" d="M 221.183594 216.273438 C 221.183594 234.648438 206.285156 249.542969 187.910156 249.542969 C 169.539062 249.542969 154.640625 234.648438 154.640625 216.273438 C 154.640625 197.898438 169.539062 183.003906 187.910156 183.003906 C 206.285156 183.003906 221.183594 197.898438 221.183594 216.273438 " fill-opacity="1" fill-rule="nonzero"/><path fill="#ffd700" d="M 200.171875 219 C 196.753906 215.300781 191.097656 213.203125 188.039062 213.203125 C 186.625 213.203125 183.859375 212.113281 181.949219 210.441406 C 181.207031 209.582031 180.722656 208.609375 180.722656 207.582031 C 180.722656 203.570312 185.660156 201.347656 189.078125 201.347656 C 191.015625 201.347656 193.265625 202.296875 194.875 203.691406 C 195.675781 204.621094 195.878906 205.375 195.878906 206.453125 C 195.878906 206.453125 197.003906 207.304688 197.003906 207.582031 L 203.207031 207.582031 C 203.207031 204.378906 201.617188 201.503906 199.265625 199.328125 C 196.449219 196.269531 192.164062 194.324219 188.253906 194.324219 C 181.253906 194.324219 173.695312 199.078125 173.695312 206.757812 C 173.695312 210.035156 175.320312 212.777344 177.574219 214.863281 C 180.738281 218.289062 185.652344 220.226562 188.863281 220.226562 C 190.398438 220.226562 193.734375 221.582031 195.824219 223.402344 C 196.433594 224.113281 196.816406 224.875 196.816406 225.636719 C 196.816406 229.539062 193.695312 231.871094 188.464844 231.871094 C 185.636719 231.871094 183.457031 231.023438 181.976562 229.78125 C 181.011719 228.65625 180.511719 227.332031 180.511719 226.035156 C 180.511719 226.035156 179.382812 225.179688 179.382812 224.90625 L 173.484375 225.210938 C 173.484375 228.429688 174.9375 231.699219 177.601562 234.140625 C 180.171875 236.941406 184.164062 238.894531 189.289062 238.894531 C 197.992188 238.894531 203.84375 233.898438 203.84375 226.460938 C 203.84375 223.496094 202.3125 220.980469 200.171875 219 " fill-opacity="1" fill-rule="nonzero"/><path fill="#ffd700" d="M 190.273438 189.519531 L 185.925781 189.824219 L 185.621094 242.402344 L 186.75 243.53125 L 191.402344 243.53125 L 191.402344 190.648438 L 190.273438 189.519531 " fill-opacity="1" fill-rule="nonzero"/><path fill="#ffffff" d="M 198.738281 217.566406 C 195.320312 213.867188 189.664062 211.769531 186.605469 211.769531 C 185.191406 211.769531 182.425781 210.683594 180.515625 209.007812 C 179.773438 208.148438 179.289062 207.179688 179.289062 206.148438 C 179.289062 202.136719 184.230469 199.917969 187.644531 199.917969 C 189.582031 199.917969 191.832031 200.863281 193.441406 202.261719 C 194.242188 203.1875 194.75 204.246094 194.75 205.324219 C 194.75 205.324219 195.878906 206.175781 195.878906 206.453125 L 201.773438 206.148438 C 201.773438 202.945312 200.183594 200.074219 197.832031 197.898438 C 195.015625 194.835938 190.730469 192.890625 186.820312 192.890625 C 179.820312 192.890625 172.265625 197.644531 172.265625 205.324219 C 172.265625 208.601562 173.886719 211.34375 176.140625 213.433594 C 179.304688 216.855469 184.21875 218.792969 187.429688 218.792969 C 188.964844 218.792969 192.300781 220.148438 194.390625 221.96875 C 195 222.683594 195.386719 223.441406 195.386719 224.203125 C 195.386719 228.105469 192.261719 230.4375 187.03125 230.4375 C 184.203125 230.4375 182.023438 229.589844 180.542969 228.347656 C 179.582031 227.222656 179.382812 226.203125 179.382812 224.90625 C 179.382812 224.90625 178.253906 224.054688 178.253906 223.78125 L 172.050781 223.78125 C 172.050781 226.996094 173.503906 230.265625 176.167969 232.707031 C 178.738281 235.507812 182.730469 237.460938 187.855469 237.460938 C 196.5625 237.460938 202.410156 232.464844 202.410156 225.027344 C 202.410156 222.0625 200.882812 219.546875 198.738281 217.566406 " fill-opacity="1" fill-rule="nonzero"/><path fill="#ffffff" d="M 189.144531 188.390625 L 184.496094 188.390625 L 184.496094 241.277344 L 185.621094 242.402344 L 189.96875 242.097656 L 190.273438 189.519531 L 189.144531 188.390625 " fill-opacity="1" fill-rule="nonzero"/><path fill="#ffffff" d="M 188.160156 237.765625 C 178.785156 237.765625 173.179688 231.226562 173.179688 224.90625 L 179.382812 224.90625 C 179.382812 228.132812 182.457031 231.566406 188.160156 231.566406 C 193.390625 231.566406 196.511719 229.234375 196.511719 225.332031 C 196.511719 222.199219 190.058594 219.097656 187.734375 219.097656 C 182.679688 219.097656 173.390625 214.296875 173.390625 206.453125 C 173.390625 198.773438 180.949219 194.019531 187.949219 194.019531 C 194.484375 194.019531 202.078125 199.449219 202.078125 206.453125 L 195.878906 206.453125 C 195.878906 203.242188 191.410156 200.222656 187.949219 200.222656 C 184.535156 200.222656 179.59375 202.441406 179.59375 206.453125 C 179.59375 210.039062 185.441406 212.898438 187.734375 212.898438 C 192.3125 212.898438 202.714844 217.59375 202.714844 225.332031 C 202.714844 232.769531 196.867188 237.765625 188.160156 237.765625 " fill-opacity="1" fill-rule="nonzero"/><path fill="#ffffff" d="M 190.273438 242.402344 L 185.621094 242.402344 L 185.621094 189.519531 L 190.273438 189.519531 L 190.273438 242.402344 " fill-opacity="1" fill-rule="nonzero"/></svg>