<svg xmlns="http://www.w3.org/2000/svg" xmlns:xlink="http://www.w3.org/1999/xlink" width="500" zoomAndPan="magnify" viewBox="0 0 375 374.999991" height="500" preserveAspectRatio="xMidYMid meet" version="1.0"><defs><clipPath id="ee6aedde5a"><path d="M 22 48.183594 L 169 48.183594 L 169 242 L 22 242 Z M 22 48.183594 " clip-rule="nonzero"/></clipPath><clipPath id="b15268f391"><path d="M 22 48.183594 L 169 48.183594 L 169 236 L 22 236 Z M 22 48.183594 " clip-rule="nonzero"/></clipPath><clipPath id="a3a8284d58"><path d="M 1 212 L 225 212 L 225 310.683594 L 1 310.683594 Z M 1 212 " clip-rule="nonzero"/></clipPath></defs><g clip-path="url(#ee6aedde5a)"><path fill="#febf00" d="M 168.769531 182.253906 C 168.769531 205.632812 152.046875 225.839844 127.753906 235.460938 C 117.449219 239.492188 106.761719 241.488281 95.695312 241.445312 C 70.582031 241.445312 48.398438 231.171875 35.242188 215.53125 C 35.242188 215.53125 35.242188 215.53125 35.242188 215.5 C 27.28125 206.027344 22.632812 194.582031 22.632812 182.253906 C 22.632812 167.148438 29.617188 153.367188 41.105469 142.914062 C 40.851562 143.574219 30.457031 170.65625 49.851562 192.167969 C 43.675781 161.175781 58.636719 148.324219 75.75 132.320312 C 92.863281 116.320312 43.71875 120.257812 43.9375 92.476562 C 43.9375 92.476562 46.714844 104.574219 71.027344 110.871094 C 95.335938 117.164062 105.960938 120.691406 90.113281 146.496094 C 74.425781 172.082031 87.675781 188.078125 87.9375 188.386719 C 87.773438 188.023438 77.484375 165.199219 99.691406 142.160156 C 122.046875 118.933594 121.066406 111.765625 95.722656 102.214844 C 70.378906 92.660156 108.476562 80.390625 104.222656 48.183594 C 104.222656 48.183594 111.210938 62.609375 102.707031 80.3125 C 92.351562 101.859375 138.953125 97.675781 139.390625 118.953125 C 139.832031 140.230469 102.273438 152.820312 115.726562 183.210938 C 129.179688 213.601562 150.320312 181.6875 138.953125 161.714844 C 138.953125 161.714844 150.675781 173.65625 150.675781 186.246094 C 150.675781 186.246094 159.144531 179.953125 152.195312 164.972656 C 145.242188 149.996094 133.746094 137.402344 152.410156 122.230469 C 152.1875 122.574219 140.828125 140.351562 154.589844 151.746094 C 168.480469 163.238281 169.078125 176.808594 168.769531 182.253906 Z M 168.769531 182.253906 " fill-opacity="1" fill-rule="nonzero"/></g><g clip-path="url(#b15268f391)"><path fill="#febf00" d="M 168.769531 182.253906 C 168.769531 205.632812 152.046875 225.839844 127.753906 235.460938 C 165.429688 217.195312 166.113281 183.253906 159.441406 171.503906 C 163.894531 188.25 156.234375 207.835938 148.929688 203.390625 C 144.394531 200.625 143.433594 195.800781 143.355469 192.535156 C 142.621094 197.941406 139.578125 208.078125 127.285156 209.894531 C 127.285156 209.894531 78.269531 195.414062 111.152344 153.648438 C 144.035156 111.878906 118.597656 108.148438 118.597656 108.148438 C 118.597656 108.148438 138.253906 114.941406 107.839844 148.265625 C 79.804688 178.996094 93.179688 210.339844 103.867188 218.886719 C 52.035156 203.851562 72.40625 154.566406 72.6875 153.882812 C 44.730469 182.910156 63.960938 224.589844 63.960938 224.589844 C 8.25 198.03125 39.382812 145.675781 41.019531 143.015625 C 19.644531 175.40625 23.386719 198.957031 35.222656 215.5 C 27.261719 206.027344 22.609375 194.582031 22.609375 182.253906 C 22.609375 167.148438 29.59375 153.367188 41.082031 142.914062 C 40.832031 143.574219 30.433594 170.65625 49.828125 192.167969 C 43.652344 161.175781 58.613281 148.324219 75.726562 132.320312 C 92.84375 116.320312 43.71875 120.257812 43.9375 92.476562 C 43.9375 92.476562 46.714844 104.574219 71.027344 110.871094 C 95.335938 117.164062 105.960938 120.691406 90.113281 146.496094 C 74.425781 172.082031 87.675781 188.078125 87.9375 188.386719 C 87.773438 188.023438 77.484375 165.199219 99.691406 142.160156 C 122.046875 118.933594 121.066406 111.765625 95.722656 102.214844 C 70.378906 92.660156 108.476562 80.390625 104.222656 48.183594 C 104.222656 48.183594 111.210938 62.609375 102.707031 80.3125 C 92.351562 101.859375 138.953125 97.675781 139.390625 118.953125 C 139.832031 140.230469 102.273438 152.820312 115.726562 183.210938 C 129.179688 213.601562 150.320312 181.6875 138.953125 161.714844 C 138.953125 161.714844 150.675781 173.65625 150.675781 186.246094 C 150.675781 186.246094 159.144531 179.953125 152.195312 164.972656 C 145.242188 149.996094 133.746094 137.402344 152.410156 122.230469 C 152.1875 122.574219 140.828125 140.351562 154.589844 151.746094 C 168.480469 163.238281 169.078125 176.808594 168.769531 182.253906 Z M 168.769531 182.253906 " fill-opacity="1" fill-rule="nonzero"/></g><path fill="#febf00" d="M 182.457031 183.933594 C 194.015625 185.753906 201.519531 189.660156 203.089844 195.585938 C 207.277344 211.375 167.785156 235.554688 114.882812 249.578125 C 61.980469 263.605469 15.695312 262.183594 11.507812 246.414062 C 9.9375 240.484375 14.523438 233.378906 23.660156 226.070312 C 7.152344 236.609375 -1.832031 247.292969 0.429688 255.8125 C 5.171875 273.699219 57.605469 275.316406 117.492188 259.425781 C 177.378906 243.535156 222.125 216.144531 217.410156 198.277344 C 215.121094 189.777344 202.027344 184.929688 182.457031 183.933594 Z M 182.457031 183.933594 " fill-opacity="1" fill-rule="nonzero"/><g clip-path="url(#a3a8284d58)"><path fill="#febf00" d="M 142.605469 262.617188 C 135.382812 265.273438 127.921875 267.628906 120.214844 269.683594 C 112.515625 271.730469 104.847656 273.371094 97.238281 274.636719 C 51.699219 283.816406 13.65625 282.550781 1.441406 271.410156 C 18.539062 305.152344 72.789062 320.222656 129.621094 305.152344 C 186.449219 290.085938 226.101562 250.097656 224.230469 212.332031 C 219.15625 228.054688 186.722656 248.019531 142.605469 262.617188 Z M 142.605469 262.617188 " fill-opacity="1" fill-rule="nonzero"/></g><path fill="#febf00" d="M 228.980469 241.445312 C 228.980469 241.445312 224.289062 212.855469 256.34375 197.878906 C 288.398438 182.902344 330.449219 170.488281 346.859375 142.222656 C 363.265625 113.957031 405.964844 144.226562 336.59375 173.449219 C 267.222656 202.671875 247.078125 202.992188 228.980469 241.445312 Z M 228.980469 241.445312 " fill-opacity="1" fill-rule="nonzero"/></svg>